<svg width="16" height="16" viewBox="0 0 16 16" fill="none" xmlns="http://www.w3.org/2000/svg">
<path d="M13.6885 7.48888H8.71072V2.5111C8.71072 2.3225 8.6358 2.14163 8.50244 2.00827C8.36908 1.87491 8.18821 1.79999 7.99961 1.79999C7.81101 1.79999 7.63014 1.87491 7.49678 2.00827C7.36342 2.14163 7.2885 2.3225 7.2885 2.5111V7.48888H2.31072C2.12212 7.48888 1.94125 7.5638 1.80789 7.69716C1.67453 7.83052 1.59961 8.01139 1.59961 8.19999C1.59961 8.38859 1.67453 8.56946 1.80789 8.70282C1.94125 8.83618 2.12212 8.9111 2.31072 8.9111H7.2885V13.8889C7.2885 14.0775 7.36342 14.2584 7.49678 14.3917C7.63014 14.5251 7.81101 14.6 7.99961 14.6C8.18821 14.6 8.36908 14.5251 8.50244 14.3917C8.6358 14.2584 8.71072 14.0775 8.71072 13.8889V8.9111H13.6885C13.8771 8.9111 14.058 8.83618 14.1913 8.70282C14.3247 8.56946 14.3996 8.38859 14.3996 8.19999C14.3996 8.01139 14.3247 7.83052 14.1913 7.69716C14.058 7.5638 13.8771 7.48888 13.6885 7.48888Z" fill="#993033"/>
<path d="M12.5251 11.7198L9.00527 8.19998L12.5251 4.68016C12.6585 4.5468 12.7334 4.36592 12.7334 4.17733C12.7334 3.98873 12.6585 3.80785 12.5251 3.67449C12.3917 3.54114 12.2109 3.46622 12.0223 3.46622C11.8337 3.46622 11.6528 3.54114 11.5194 3.67449L7.99961 7.19431L4.47979 3.67449C4.34643 3.54114 4.16556 3.46622 3.97696 3.46622C3.78836 3.46622 3.60749 3.54114 3.47413 3.67449C3.34077 3.80785 3.26585 3.98873 3.26585 4.17733C3.26585 4.36592 3.34077 4.5468 3.47413 4.68016L6.99395 8.19998L3.47413 11.7198C3.34077 11.8532 3.26585 12.034 3.26585 12.2226C3.26585 12.4112 3.34077 12.5921 3.47413 12.7255C3.60749 12.8588 3.78836 12.9337 3.97696 12.9337C4.16556 12.9337 4.34643 12.8588 4.47979 12.7255L7.99961 9.20564L11.5194 12.7255C11.6528 12.8588 11.8337 12.9337 12.0223 12.9337C12.2109 12.9337 12.3917 12.8588 12.5251 12.7255C12.6585 12.5921 12.7334 12.4112 12.7334 12.2226C12.7334 12.034 12.6585 11.8532 12.5251 11.7198Z" fill="#993033"/>
</svg>
