<svg width="16" height="16" viewBox="0 0 16 16" fill="none" xmlns="http://www.w3.org/2000/svg">
<g id="book">
<path id="Vector" d="M14.6667 11.2V1.6C14.6667 1.17565 14.4911 0.768687 14.1786 0.468629C13.866 0.168571 13.4421 0 13 0H3.00004C2.55801 0 2.13409 0.168571 1.82153 0.468629C1.50897 0.768687 1.33337 1.17565 1.33337 1.6V13.6C1.33337 14.2365 1.59677 14.847 2.06561 15.2971C2.53445 15.7471 3.17033 16 3.83337 16H13.8334C14.0544 16 14.2663 15.9157 14.4226 15.7657C14.5789 15.6157 14.6667 15.4122 14.6667 15.2C14.6667 14.9878 14.5789 14.7843 14.4226 14.6343C14.2663 14.4843 14.0544 14.4 13.8334 14.4H13V12.8C13.4421 12.8 13.866 12.6314 14.1786 12.3314C14.4911 12.0313 14.6667 11.6243 14.6667 11.2ZM4.66671 1.6H6.33337V11.2H4.66671V1.6ZM11.3334 14.4H3.83337C3.61236 14.4 3.4004 14.3157 3.24412 14.1657C3.08784 14.0157 3.00004 13.8122 3.00004 13.6C3.00004 13.3878 3.08784 13.1843 3.24412 13.0343C3.4004 12.8843 3.61236 12.8 3.83337 12.8H11.3334V14.4Z" fill="#6B7280"/>
</g>
</svg>
