<svg width="10" height="10" viewBox="0 0 10 10" fill="none" xmlns="http://www.w3.org/2000/svg">
<g id="check" clip-path="url(#clip0_2464_28705)">
<g id="Vector">
<path d="M0 9C0 9.26522 0.105357 9.51957 0.292893 9.70711C0.48043 9.89464 0.734784 10 1 10H9C9.26522 10 9.51957 9.89464 9.70711 9.70711C9.89464 9.51957 10 9.26522 10 9V4H0V9ZM7 5.25C7 5.1837 7.02634 5.12011 7.07322 5.07322C7.12011 5.02634 7.1837 5 7.25 5H7.75C7.8163 5 7.87989 5.02634 7.92678 5.07322C7.97366 5.12011 8 5.1837 8 5.25V5.75C8 5.8163 7.97366 5.87989 7.92678 5.92678C7.87989 5.97366 7.8163 6 7.75 6H7.25C7.1837 6 7.12011 5.97366 7.07322 5.92678C7.02634 5.87989 7 5.8163 7 5.75V5.25ZM7 7.25C7 7.1837 7.02634 7.12011 7.07322 7.07322C7.12011 7.02634 7.1837 7 7.25 7H7.75C7.8163 7 7.87989 7.02634 7.92678 7.07322C7.97366 7.12011 8 7.1837 8 7.25V7.75C8 7.8163 7.97366 7.87989 7.92678 7.92678C7.87989 7.97366 7.8163 8 7.75 8H7.25C7.1837 8 7.12011 7.97366 7.07322 7.92678C7.02634 7.87989 7 7.8163 7 7.75V7.25ZM4.5 5.25C4.5 5.1837 4.52634 5.12011 4.57322 5.07322C4.62011 5.02634 4.6837 5 4.75 5H5.25C5.3163 5 5.37989 5.02634 5.42678 5.07322C5.47366 5.12011 5.5 5.1837 5.5 5.25V5.75C5.5 5.8163 5.47366 5.87989 5.42678 5.92678C5.37989 5.97366 5.3163 6 5.25 6H4.75C4.6837 6 4.62011 5.97366 4.57322 5.92678C4.52634 5.87989 4.5 5.8163 4.5 5.75V5.25ZM4.5 7.25C4.5 7.1837 4.52634 7.12011 4.57322 7.07322C4.62011 7.02634 4.6837 7 4.75 7H5.25C5.3163 7 5.37989 7.02634 5.42678 7.07322C5.47366 7.12011 5.5 7.1837 5.5 7.25V7.75C5.5 7.8163 5.47366 7.87989 5.42678 7.92678C5.37989 7.97366 5.3163 8 5.25 8H4.75C4.6837 8 4.62011 7.97366 4.57322 7.92678C4.52634 7.87989 4.5 7.8163 4.5 7.75V7.25ZM2 5.25C2 5.1837 2.02634 5.12011 2.07322 5.07322C2.12011 5.02634 2.1837 5 2.25 5H2.75C2.8163 5 2.87989 5.02634 2.92678 5.07322C2.97366 5.12011 3 5.1837 3 5.25V5.75C3 5.8163 2.97366 5.87989 2.92678 5.92678C2.87989 5.97366 2.8163 6 2.75 6H2.25C2.1837 6 2.12011 5.97366 2.07322 5.92678C2.02634 5.87989 2 5.8163 2 5.75V5.25ZM2 7.25C2 7.1837 2.02634 7.12011 2.07322 7.07322C2.12011 7.02634 2.1837 7 2.25 7H2.75C2.8163 7 2.87989 7.02634 2.92678 7.07322C2.97366 7.12011 3 7.1837 3 7.25V7.75C3 7.8163 2.97366 7.87989 2.92678 7.92678C2.87989 7.97366 2.8163 8 2.75 8H2.25C2.1837 8 2.12011 7.97366 2.07322 7.92678C2.02634 7.87989 2 7.8163 2 7.75V7.25Z" fill="#1F3764"/>
<path d="M10 2C10 1.73478 9.89464 1.48043 9.70711 1.29289C9.51957 1.10536 9.26522 1 9 1H8V0.5C8 0.367392 7.94732 0.240215 7.85355 0.146447C7.75979 0.0526784 7.63261 0 7.5 0C7.36739 0 7.24021 0.0526784 7.14645 0.146447C7.05268 0.240215 7 0.367392 7 0.5V1H5.5V0.5C5.5 0.367392 5.44732 0.240215 5.35355 0.146447C5.25979 0.0526784 5.13261 0 5 0C4.86739 0 4.74021 0.0526784 4.64645 0.146447C4.55268 0.240215 4.5 0.367392 4.5 0.5V1H3V0.5C3 0.367392 2.94732 0.240215 2.85355 0.146447C2.75979 0.0526784 2.63261 0 2.5 0C2.36739 0 2.24021 0.0526784 2.14645 0.146447C2.05268 0.240215 2 0.367392 2 0.5V1H1C0.734784 1 0.48043 1.10536 0.292893 1.29289C0.105357 1.48043 0 1.73478 0 2V3H10V2Z" fill="#1F3764"/>
</g>
</g>
<defs>
<clipPath id="clip0_2464_28705">
<rect width="10" height="10" fill="white"/>
</clipPath>
</defs>
</svg>
