<svg width="13" height="12" viewBox="0 0 13 12" fill="none" xmlns="http://www.w3.org/2000/svg">
<g id="chevron-down">
<path id="Vector" d="M6.51325 9C6.22684 8.99994 5.95218 8.89476 5.74969 8.7076L1.42969 4.71577C1.32654 4.62372 1.24426 4.5136 1.18766 4.39184C1.13106 4.27009 1.10126 4.13914 1.10002 4.00663C1.09877 3.87412 1.1261 3.74271 1.1804 3.62006C1.2347 3.49742 1.3149 3.386 1.4163 3.2923C1.5177 3.19859 1.63829 3.12449 1.77102 3.07432C1.90374 3.02414 2.04596 2.99889 2.18936 3.00004C2.33276 3.00119 2.47448 3.02872 2.60624 3.08102C2.73801 3.13332 2.85718 3.20935 2.95681 3.30466L6.51325 6.59093L10.0697 3.30466C10.2734 3.12288 10.5462 3.02229 10.8294 3.02456C11.1125 3.02684 11.3834 3.13179 11.5836 3.31682C11.7839 3.50185 11.8975 3.75215 11.8999 4.01381C11.9024 4.27547 11.7935 4.52756 11.5968 4.71577L7.27681 8.7076C7.07431 8.89476 6.79966 8.99994 6.51325 9Z" fill="#111928"/>
</g>
</svg>
