<svg width="17" height="15" viewBox="0 0 17 15" fill="none" xmlns="http://www.w3.org/2000/svg">
<g id="clipboard-check" clip-path="url(#clip0_1466_21553)">
<path id="Vector" d="M13.8036 1.13337H11.1327C10.9908 0.890941 10.7865 0.689408 10.5402 0.548992C10.2939 0.408577 10.0144 0.334217 9.72956 0.333374H6.47031C6.18552 0.334217 5.90597 0.408577 5.65969 0.548992C5.41342 0.689408 5.20909 0.890941 5.06719 1.13337H2.39623C1.96403 1.13337 1.54952 1.30194 1.24391 1.602C0.938294 1.90206 0.766602 2.30903 0.766602 2.73337V14.7334C0.766602 15.1577 0.938294 15.5647 1.24391 15.8647C1.54952 16.1648 1.96403 16.3334 2.39623 16.3334H13.8036C14.2358 16.3334 14.6503 16.1648 14.956 15.8647C15.2616 15.5647 15.4333 15.1577 15.4333 14.7334V2.73337C15.4333 2.30903 15.2616 1.90206 14.956 1.602C14.6503 1.30194 14.2358 1.13337 13.8036 1.13337ZM6.47031 1.93337H9.72956V4.33337H6.47031V1.93337ZM11.1147 8.56457L7.87586 11.6502C7.72381 11.7951 7.52024 11.8761 7.30834 11.8761C7.09644 11.8761 6.89287 11.7951 6.74082 11.6502L5.08512 10.079C5.00829 10.0054 4.94697 9.91776 4.90465 9.82095C4.86234 9.72414 4.83986 9.6201 4.83849 9.51476C4.83713 9.40942 4.85692 9.30485 4.89672 9.20702C4.93651 9.10918 4.99555 9.02001 5.07045 8.94457C5.14536 8.86914 5.23466 8.80894 5.33326 8.76739C5.43186 8.72584 5.53783 8.70377 5.64512 8.70243C5.75241 8.7011 5.85892 8.72052 5.95856 8.75959C6.0582 8.79867 6.14903 8.85663 6.22586 8.93017L7.30793 9.96137L9.98053 7.41657C10.0566 7.34001 10.1475 7.27918 10.2478 7.2377C10.3482 7.19621 10.4561 7.17491 10.565 7.17504C10.6739 7.17518 10.7817 7.19675 10.882 7.23848C10.9822 7.28022 11.073 7.34127 11.1488 7.41802C11.2246 7.49478 11.284 7.58568 11.3235 7.68536C11.3629 7.78504 11.3816 7.89147 11.3784 7.99836C11.3752 8.10525 11.3503 8.21043 11.305 8.30768C11.2597 8.40494 11.195 8.49229 11.1147 8.56457Z" fill="#1F3764"/>
</g>
<defs>
<clipPath id="clip0_1466_21553">
<rect width="16" height="16" fill="white" transform="translate(0.0999756 0.333374)"/>
</clipPath>
</defs>
</svg>
