<svg width="17" height="20" viewBox="0 0 17 20" fill="none" xmlns="http://www.w3.org/2000/svg">
<path d="M9.80469 0C10.3245 0.00010684 10.8228 0.21102 11.1904 0.585938C11.5581 0.96101 11.7646 1.46957 11.7646 2H14.7061C15.2261 2 15.7251 2.21086 16.0928 2.58594C16.4604 2.961 16.667 3.46961 16.667 4V18C16.667 18.5304 16.4604 19.039 16.0928 19.4141C15.7251 19.7891 15.2261 20 14.7061 20H1.96094C1.44098 19.9999 0.941886 19.7891 0.574219 19.4141C0.206686 19.039 0 18.5303 0 18V4C0 3.46971 0.206686 2.96098 0.574219 2.58594C0.941886 2.21092 1.44098 2.00006 1.96094 2H4.90234C4.90234 1.46962 5.10891 0.960999 5.47656 0.585938C5.84428 0.210865 6.34325 0 6.86328 0H9.80469ZM1.96094 18H14.7061V4H11.7646V5C12.0246 5 12.2742 5.10551 12.458 5.29297C12.6419 5.4805 12.7451 5.73478 12.7451 6C12.7451 6.26522 12.6419 6.5195 12.458 6.70703C12.2742 6.89449 12.0246 7 11.7646 7H4.90234C4.64233 7 4.39284 6.89457 4.20898 6.70703C4.02518 6.5195 3.92188 6.26517 3.92188 6C3.92188 5.73483 4.02518 5.4805 4.20898 5.29297C4.39284 5.10543 4.64233 5 4.90234 5V4H1.96094V18ZM11.7646 13C12.0246 13 12.2742 13.1055 12.458 13.293C12.6419 13.4805 12.7451 13.7348 12.7451 14C12.7451 14.2652 12.6419 14.5195 12.458 14.707C12.2742 14.8945 12.0246 15 11.7646 15H4.90234C4.64233 15 4.39284 14.8946 4.20898 14.707C4.02518 14.5195 3.92188 14.2652 3.92188 14C3.92188 13.7348 4.02518 13.4805 4.20898 13.293C4.39284 13.1054 4.64233 13 4.90234 13H11.7646ZM11.7646 9C12.0246 9 12.2742 9.10551 12.458 9.29297C12.6419 9.4805 12.7451 9.73478 12.7451 10C12.7451 10.2652 12.6419 10.5195 12.458 10.707C12.2742 10.8945 12.0246 11 11.7646 11H4.90234C4.64233 11 4.39284 10.8946 4.20898 10.707C4.02518 10.5195 3.92188 10.2652 3.92188 10C3.92188 9.73483 4.02518 9.4805 4.20898 9.29297C4.39284 9.10543 4.64233 9 4.90234 9H11.7646ZM6.86328 5H9.80469V2H6.86328V5Z" fill="#0B3461"/>
</svg>
