<svg width="14" height="15" viewBox="0 0 14 15" fill="none" xmlns="http://www.w3.org/2000/svg">
<g id="x-outline">
<path id="Vector" d="M8.27056 7.50001L13.0259 2.74466C13.1117 2.66178 13.1802 2.56265 13.2273 2.45304C13.2743 2.34342 13.2991 2.22553 13.3002 2.10624C13.3012 1.98695 13.2785 1.86865 13.2333 1.75823C13.1881 1.64782 13.1214 1.54751 13.0371 1.46315C12.9527 1.3788 12.8524 1.31209 12.742 1.26691C12.6316 1.22174 12.5133 1.19901 12.394 1.20005C12.2747 1.20108 12.1568 1.22587 12.0472 1.27295C11.9376 1.32004 11.8384 1.38848 11.7555 1.47429L7.0002 6.22964L2.24484 1.47429C2.0754 1.31064 1.84845 1.22008 1.61289 1.22213C1.37733 1.22417 1.15199 1.31866 0.985417 1.48523C0.818842 1.65181 0.724356 1.87714 0.722309 2.11271C0.720262 2.34827 0.810818 2.57522 0.974473 2.74466L5.72983 7.50001L0.974473 12.2554C0.888665 12.3382 0.820221 12.4374 0.773135 12.547C0.72605 12.6566 0.701266 12.7745 0.700229 12.8938C0.699193 13.0131 0.721924 13.1314 0.767098 13.2418C0.812271 13.3522 0.878982 13.4525 0.963337 13.5369C1.04769 13.6212 1.148 13.6879 1.25842 13.7331C1.36883 13.7783 1.48713 13.801 1.60642 13.8C1.72572 13.7989 1.84361 13.7742 1.95322 13.7271C2.06283 13.68 2.16197 13.6115 2.24484 13.5257L7.0002 8.77038L11.7555 13.5257C11.925 13.6894 12.1519 13.7799 12.3875 13.7779C12.6231 13.7759 12.8484 13.6814 13.015 13.5148C13.1815 13.3482 13.276 13.1229 13.2781 12.8873C13.2801 12.6518 13.1896 12.4248 13.0259 12.2554L8.27056 7.50001Z" fill="#135F9B"/>
</g>
</svg>
