<svg width="20" height="20" viewBox="0 0 20 20" fill="none" xmlns="http://www.w3.org/2000/svg">
<path d="M16.5215 17C16.2589 17 16.007 17.1054 15.8213 17.2929C15.6355 17.4804 15.5312 17.7348 15.5312 18H3.64697V7.00001H6.61802C7.14334 7.00001 7.64714 6.7893 8.01859 6.41422C8.39004 6.03915 8.59872 5.53044 8.59872 5.00001V2.00001H15.5312V6.00001C15.5312 6.26523 15.6355 6.51958 15.8213 6.70712C16.007 6.89465 16.2589 7.00001 16.5215 7.00001C16.7842 7.00001 17.0361 6.89465 17.2218 6.70712C17.4076 6.51958 17.5119 6.26523 17.5119 6.00001V2.00001C17.5201 1.47864 17.3232 0.975257 16.9643 0.600313C16.6054 0.22537 16.1139 0.00948286 15.5975 1.50862e-05H7.43902C7.04855 -0.00123988 6.66171 0.0758135 6.30096 0.226704C5.9402 0.377595 5.61272 0.59932 5.3375 0.879014L2.53678 3.70701C2.25979 3.98491 2.0402 4.31559 1.89076 4.67986C1.74133 5.04413 1.66502 5.43473 1.66626 5.82901V18C1.65805 18.5214 1.85499 19.0248 2.21387 19.3997C2.57276 19.7746 3.06428 19.9905 3.58061 20H15.5312C16.0565 20 16.5603 19.7893 16.9318 19.4142C17.3032 19.0391 17.5119 18.5304 17.5119 18C17.5119 17.7348 17.4076 17.4804 17.2218 17.2929C17.0361 17.1054 16.7842 17 16.5215 17ZM6.61802 2.41401V5.00001H4.05697L6.61802 2.41401Z" fill="white"/>
<path d="M18.0427 11.293L15.3014 8.52501C15.2101 8.4295 15.1008 8.35332 14.98 8.30091C14.8591 8.2485 14.7292 8.22091 14.5977 8.21976C14.4662 8.2186 14.3358 8.24391 14.2141 8.29419C14.0924 8.34447 13.9818 8.41872 13.8888 8.51261C13.7958 8.60651 13.7223 8.71816 13.6725 8.84105C13.6227 8.96395 13.5976 9.09563 13.5988 9.22841C13.5999 9.36119 13.6272 9.49241 13.6791 9.61441C13.731 9.73642 13.8065 9.84676 13.9011 9.93901L14.9508 11H8.59872C8.33607 11 8.08417 11.1054 7.89844 11.2929C7.71271 11.4804 7.60837 11.7348 7.60837 12C7.60837 12.2652 7.71271 12.5196 7.89844 12.7071C8.08417 12.8946 8.33607 13 8.59872 13H14.9508L13.9011 14.061C13.8065 14.1533 13.731 14.2636 13.6791 14.3856C13.6272 14.5076 13.5999 14.6388 13.5988 14.7716C13.5976 14.9044 13.6227 15.0361 13.6725 15.159C13.7223 15.2819 13.7958 15.3935 13.8888 15.4874C13.9818 15.5813 14.0924 15.6555 14.2141 15.7058C14.3358 15.7561 14.4662 15.7814 14.5977 15.7803C14.7292 15.7791 14.8591 15.7515 14.98 15.6991C15.1008 15.6467 15.2101 15.5705 15.3014 15.475L18.0427 12.707C18.2284 12.5195 18.3327 12.2652 18.3327 12C18.3327 11.7348 18.2284 11.4805 18.0427 11.293Z" fill="white"/>
</svg>
