<svg width="17" height="16" viewBox="0 0 17 16" fill="none" xmlns="http://www.w3.org/2000/svg">
<g id="file-chart-bar">
<g id="Vector">
<path d="M6.00011 4V0.104004C5.59378 0.212646 5.22296 0.418862 4.92264 0.703204L2.56605 2.9656C2.26987 3.25392 2.05506 3.60991 1.9419 4H6.00011Z" fill="#1F3764"/>
<path d="M13.5549 0H7.66673V4C7.66673 4.42435 7.49114 4.83131 7.17859 5.13137C6.86604 5.43143 6.44213 5.6 6.00011 5.6H1.83357V14.4C1.82688 14.8172 1.99278 15.2199 2.29488 15.5198C2.59699 15.8197 3.01066 15.9924 3.44519 16H13.5549C13.9894 15.9924 14.4031 15.8197 14.7052 15.5198C15.0073 15.2199 15.1732 14.8172 15.1665 14.4V1.6C15.1732 1.18282 15.0073 0.780122 14.7052 0.48019C14.4031 0.180259 13.9894 0.00757502 13.5549 0ZM6.83342 12.8C6.83342 13.0122 6.74563 13.2157 6.58935 13.3657C6.43308 13.5157 6.22112 13.6 6.00011 13.6C5.77911 13.6 5.56715 13.5157 5.41087 13.3657C5.2546 13.2157 5.1668 13.0122 5.1668 12.8V11.2C5.1668 10.9878 5.2546 10.7843 5.41087 10.6343C5.56715 10.4843 5.77911 10.4 6.00011 10.4C6.22112 10.4 6.43308 10.4843 6.58935 10.6343C6.74563 10.7843 6.83342 10.9878 6.83342 11.2V12.8ZM9.33335 12.8C9.33335 13.0122 9.24555 13.2157 9.08928 13.3657C8.933 13.5157 8.72105 13.6 8.50004 13.6C8.27903 13.6 8.06708 13.5157 7.9108 13.3657C7.75453 13.2157 7.66673 13.0122 7.66673 12.8V8C7.66673 7.78783 7.75453 7.58434 7.9108 7.43431C8.06708 7.28429 8.27903 7.2 8.50004 7.2C8.72105 7.2 8.933 7.28429 9.08928 7.43431C9.24555 7.58434 9.33335 7.78783 9.33335 8V12.8ZM11.8333 12.8C11.8333 13.0122 11.7455 13.2157 11.5892 13.3657C11.4329 13.5157 11.221 13.6 11 13.6C10.779 13.6 10.567 13.5157 10.4107 13.3657C10.2545 13.2157 10.1667 13.0122 10.1667 12.8V9.6C10.1667 9.38783 10.2545 9.18434 10.4107 9.03432C10.567 8.88429 10.779 8.8 11 8.8C11.221 8.8 11.4329 8.88429 11.5892 9.03432C11.7455 9.18434 11.8333 9.38783 11.8333 9.6V12.8Z" fill="#1F3764"/>
</g>
</g>
</svg>
