<svg width="12" height="12" viewBox="0 0 12 12" fill="none" xmlns="http://www.w3.org/2000/svg">
<path d="M6 0C7.59076 0.00174696 9.11539 0.634926 10.2402 1.75977C11.3651 2.88461 11.9983 4.40924 12 6C12 7.18649 11.6483 8.34642 10.9893 9.33301C10.33 10.3197 9.39225 11.0888 8.2959 11.543C7.19956 11.9971 5.99296 12.1163 4.8291 11.8848C3.66535 11.6532 2.59685 11.0812 1.75781 10.2422C0.918778 9.40315 0.346789 8.33465 0.115234 7.1709C-0.116272 6.00704 0.00292789 4.80044 0.457031 3.7041C0.911157 2.60775 1.6803 1.67003 2.66699 1.01074C3.65358 0.351664 4.81351 3.76654e-07 6 0ZM4.7998 4.7998C4.64084 4.79986 4.48843 4.86323 4.37598 4.97559C4.26345 5.08811 4.2002 5.24126 4.2002 5.40039C4.2003 5.55938 4.26355 5.71179 4.37598 5.82422C4.48844 5.93663 4.64079 5.99995 4.7998 6H5.40039V7.7998H4.7998C4.64084 7.79986 4.48843 7.86323 4.37598 7.97559C4.26345 8.08811 4.2002 8.24126 4.2002 8.40039C4.2003 8.55938 4.26355 8.71179 4.37598 8.82422C4.48844 8.93663 4.64079 8.99995 4.7998 9H7.2002C7.35921 8.99995 7.51156 8.93663 7.62402 8.82422C7.73645 8.71179 7.7997 8.55938 7.7998 8.40039C7.7998 8.24126 7.73655 8.08811 7.62402 7.97559C7.51157 7.86323 7.35916 7.79986 7.2002 7.7998H6.59961V5.40039C6.59961 5.24126 6.53635 5.08811 6.42383 4.97559C6.31133 4.86325 6.15899 4.7998 6 4.7998H4.7998ZM5.7002 2.40039C5.4615 2.40039 5.23226 2.49528 5.06348 2.66406C4.89492 2.83277 4.79986 3.06132 4.7998 3.2998C4.7998 3.47781 4.85326 3.6518 4.95215 3.7998C5.05104 3.94777 5.19104 4.06373 5.35547 4.13184C5.51992 4.19995 5.7014 4.21734 5.87598 4.18262C6.05027 4.14787 6.21021 4.06214 6.33594 3.93652C6.4618 3.81066 6.54828 3.65017 6.58301 3.47559C6.6177 3.30113 6.59925 3.12041 6.53125 2.95605C6.46316 2.79166 6.34812 2.65065 6.2002 2.55176C6.05224 2.4529 5.87813 2.40043 5.7002 2.40039Z" fill="#545964"/>
</svg>
