<svg width="17" height="16" viewBox="0 0 17 16" fill="none" xmlns="http://www.w3.org/2000/svg">
<g id="lock-open" clip-path="url(#clip0_1874_21652)">
<path id="Vector" d="M12.5652 0.0151039C11.6506 0.128665 10.8105 0.576948 10.2071 1.27341C9.60365 1.96987 9.27973 2.86512 9.29784 3.78633V5.59994H2.10048C1.67601 5.59994 1.26892 5.76851 0.96877 6.06857C0.668621 6.36863 0.5 6.7756 0.5 7.19995V14.4C0.5 14.8243 0.668621 15.2313 0.96877 15.5314C1.26892 15.8314 1.67601 16 2.10048 16H11.7034C12.1278 16 12.5349 15.8314 12.8351 15.5314C13.1352 15.2313 13.3038 14.8243 13.3038 14.4V7.19995C13.3038 6.7756 13.1352 6.36863 12.8351 6.06857C12.5349 5.76851 12.1278 5.59994 11.7034 5.59994H10.8983V3.74393C10.8846 3.22654 11.0625 2.72232 11.3979 2.32807C11.7333 1.93383 12.2026 1.67736 12.7157 1.60791C12.9927 1.58244 13.272 1.61501 13.5357 1.70354C13.7995 1.79207 14.0418 1.93462 14.2474 2.12208C14.4529 2.30954 14.617 2.53779 14.7293 2.79226C14.8416 3.04672 14.8996 3.3218 14.8995 3.59993V6.39994C14.8995 6.61212 14.9838 6.8156 15.1339 6.96563C15.284 7.11566 15.4875 7.19995 15.6998 7.19995C15.912 7.19995 16.1155 7.11566 16.2656 6.96563C16.4157 6.8156 16.5 6.61212 16.5 6.39994V3.59993C16.4994 3.0992 16.3945 2.60408 16.1919 2.14614C15.9893 1.68821 15.6934 1.27751 15.3232 0.94023C14.953 0.602949 14.5166 0.346491 14.0417 0.187207C13.5668 0.0279233 13.064 -0.0306901 12.5652 0.0151039ZM7.70216 12.1336C7.70216 12.3458 7.61785 12.5492 7.46778 12.6993C7.3177 12.8493 7.11416 12.9336 6.90192 12.9336C6.68968 12.9336 6.48614 12.8493 6.33607 12.6993C6.18599 12.5492 6.10168 12.3458 6.10168 12.1336V9.73356C6.10168 9.52139 6.18599 9.3179 6.33607 9.16787C6.48614 9.01784 6.68968 8.93356 6.90192 8.93356C7.11416 8.93356 7.3177 9.01784 7.46778 9.16787C7.61785 9.3179 7.70216 9.52139 7.70216 9.73356V12.1336Z" fill="#135F9B"/>
</g>
<defs>
<clipPath id="clip0_1874_21652">
<rect width="16" height="16" fill="white" transform="translate(0.5)"/>
</clipPath>
</defs>
</svg>
