<svg width="17" height="16" viewBox="0 0 17 16" fill="none" xmlns="http://www.w3.org/2000/svg">
<g id="lock-outline">
<path id="Vector" d="M11.8748 5.6V6.35H12.6248H13.9998C14.1818 6.35 14.354 6.38644 14.505 6.45H13.9998H2.99984H2.49471C2.64572 6.38644 2.81783 6.35 2.99984 6.35H4.37484H5.12484V5.6V3.6C5.12484 2.87964 5.45187 2.16433 6.07617 1.61948C6.70372 1.07181 7.57425 0.75 8.49984 0.75C9.42542 0.75 10.296 1.07181 10.9235 1.61948C11.5478 2.16433 11.8748 2.87964 11.8748 3.6V5.6ZM14.7498 7.2V6.59039C14.7682 6.60434 14.786 6.61879 14.803 6.6337C14.9976 6.80347 15.0832 7.01007 15.0832 7.2V14.4C15.0832 14.5899 14.9976 14.7965 14.8031 14.9663C14.786 14.9812 14.7682 14.9957 14.7498 15.0096V14.4V7.2ZM13.9998 15.15H14.505C14.354 15.2136 14.1818 15.25 13.9998 15.25H2.99984C2.81783 15.25 2.64572 15.2136 2.49471 15.15H2.99984H13.9998ZM2.24984 14.4V15.0096C2.23146 14.9957 2.21371 14.9812 2.19663 14.9663C2.0021 14.7965 1.9165 14.5899 1.9165 14.4V7.2C1.9165 7.01007 2.0021 6.80347 2.19663 6.6337L1.71649 6.08355L2.19663 6.6337C2.21371 6.61879 2.23146 6.60434 2.24984 6.59039V7.2V14.4ZM10.7915 6.35H11.5415V5.6V3.6C11.5415 2.83515 11.1925 2.12608 10.6134 1.62072C10.0376 1.11819 9.27606 0.85 8.49984 0.85C7.72362 0.85 6.96204 1.11819 6.38623 1.62072C5.80718 2.12608 5.45817 2.83515 5.45817 3.6V5.6V6.35H6.20817H10.7915ZM8.34481 9.59938C8.37068 9.57681 8.42516 9.55 8.49984 9.55C8.57452 9.55 8.629 9.57681 8.65487 9.59938C8.6607 9.60448 8.66435 9.60864 8.6665 9.61146V11.9885C8.66435 11.9914 8.6607 11.9955 8.65487 12.0006C8.629 12.0232 8.57452 12.05 8.49984 12.05C8.42515 12.05 8.37068 12.0232 8.34481 12.0006C8.33897 11.9955 8.33532 11.9914 8.33317 11.9885V9.61146C8.33532 9.60864 8.33897 9.60448 8.34481 9.59938Z" stroke="#135F9B" stroke-width="1.5"/>
</g>
</svg>
