<svg width="20" height="20" viewBox="0 0 20 20" fill="none" xmlns="http://www.w3.org/2000/svg">
<path d="M5.26316 19.1668C4.98398 19.1668 4.71624 19.0532 4.51884 18.851C4.32143 18.6487 4.21053 18.3744 4.21053 18.0884V14.8531H2.10526C1.54691 14.8531 1.01143 14.6259 0.616617 14.2214C0.221804 13.8169 0 13.2683 0 12.6962V2.99036C0 2.41832 0.221804 1.86972 0.616617 1.46523C1.01143 1.06074 1.54691 0.833496 2.10526 0.833496H17.8947C18.4531 0.833496 18.9886 1.06074 19.3834 1.46523C19.7782 1.86972 20 2.41832 20 2.99036V12.6962C20 13.2683 19.7782 13.8169 19.3834 14.2214C18.9886 14.6259 18.4531 14.8531 17.8947 14.8531H10.8958L5.92105 18.9307C5.7343 19.0836 5.50227 19.1669 5.26316 19.1668ZM2.10526 2.99036V12.6962H5.26316C5.54233 12.6962 5.81007 12.8099 6.00748 13.0121C6.20489 13.2144 6.31579 13.4887 6.31579 13.7747V15.8442L9.86842 12.9324C10.0552 12.7794 10.2872 12.6961 10.5263 12.6962H17.8947V2.99036H2.10526Z" fill="white"/>
<path d="M5.78947 8.92173C6.37083 8.92173 6.84211 8.4389 6.84211 7.8433C6.84211 7.2477 6.37083 6.76487 5.78947 6.76487C5.20812 6.76487 4.73684 7.2477 4.73684 7.8433C4.73684 8.4389 5.20812 8.92173 5.78947 8.92173Z" fill="white"/>
<path d="M10 8.92173C10.5814 8.92173 11.0526 8.4389 11.0526 7.8433C11.0526 7.2477 10.5814 6.76487 10 6.76487C9.41865 6.76487 8.94737 7.2477 8.94737 7.8433C8.94737 8.4389 9.41865 8.92173 10 8.92173Z" fill="white"/>
<path d="M14.2105 8.92173C14.7919 8.92173 15.2632 8.4389 15.2632 7.8433C15.2632 7.2477 14.7919 6.76487 14.2105 6.76487C13.6292 6.76487 13.1579 7.2477 13.1579 7.8433C13.1579 8.4389 13.6292 8.92173 14.2105 8.92173Z" fill="white"/>
</svg>
