<svg width="17" height="16" viewBox="0 0 17 16" fill="none" xmlns="http://www.w3.org/2000/svg">
<g id="search">
<path id="Vector" fill-rule="evenodd" clip-rule="evenodd" d="M6.5 2.00003C5.43913 2.00003 4.42172 2.42146 3.67157 3.17161C2.92143 3.92175 2.5 4.93917 2.5 6.00003C2.5 7.0609 2.92143 8.07832 3.67157 8.82846C4.42172 9.57861 5.43913 10 6.5 10C7.56087 10 8.57828 9.57861 9.32843 8.82846C10.0786 8.07832 10.5 7.0609 10.5 6.00003C10.5 4.93917 10.0786 3.92175 9.32843 3.17161C8.57828 2.42146 7.56087 2.00003 6.5 2.00003ZM0.5 6.00003C0.49988 5.05574 0.722642 4.12475 1.15017 3.28278C1.5777 2.4408 2.19792 1.71163 2.9604 1.15456C3.72287 0.597487 4.60606 0.228246 5.53815 0.0768669C6.47023 -0.0745122 7.42488 -0.00375491 8.32446 0.283384C9.22404 0.570523 10.0432 1.06594 10.7152 1.72933C11.3872 2.39272 11.8931 3.20537 12.1919 4.10117C12.4906 4.99697 12.5737 5.95063 12.4343 6.88459C12.295 7.81855 11.9372 8.70643 11.39 9.47603L16.207 14.293C16.3892 14.4816 16.49 14.7342 16.4877 14.9964C16.4854 15.2586 16.3802 15.5094 16.1948 15.6949C16.0094 15.8803 15.7586 15.9854 15.4964 15.9877C15.2342 15.99 14.9816 15.8892 14.793 15.707L9.977 10.891C9.07936 11.5293 8.02335 11.9082 6.92468 11.9862C5.826 12.0641 4.72707 11.8381 3.7483 11.333C2.76953 10.8279 1.94869 10.0631 1.37572 9.12239C0.80276 8.18171 0.499786 7.10147 0.5 6.00003Z" fill="#1F3764"/>
</g>
</svg>
