<svg width="14" height="15" viewBox="0 0 14 15" fill="none" xmlns="http://www.w3.org/2000/svg">
<g id="share-nodes-outline">
<path id="Vector" d="M11.1997 8.73542C10.8264 8.73575 10.457 8.81327 10.1134 8.96336C9.76979 9.11345 9.45898 9.33307 9.19942 9.60916L5.54458 7.63932C5.58018 7.45795 5.5984 7.27343 5.59899 7.08839C5.59443 6.97942 5.58374 6.87081 5.56698 6.7631L9.0618 5.22149C9.48564 5.7349 10.0717 6.0782 10.717 6.19111C11.3623 6.30402 12.0256 6.17932 12.5905 5.83891C13.1553 5.49849 13.5856 4.96413 13.8058 4.32965C14.0259 3.69518 14.0218 3.00116 13.7943 2.36947C13.5667 1.73778 13.1302 1.2088 12.5613 0.875433C11.9925 0.542066 11.3278 0.425621 10.6839 0.546547C10.0399 0.667472 9.45796 1.01804 9.04018 1.53668C8.62239 2.05532 8.39549 2.70888 8.39932 3.38259C8.4038 3.49294 8.41448 3.60292 8.43133 3.71199L4.93731 5.24949C4.5749 4.8034 4.08962 4.48086 3.54548 4.32445C3.00134 4.16803 2.42391 4.18508 1.88938 4.37335C1.35484 4.56161 0.888321 4.91224 0.551356 5.37899C0.214392 5.84573 0.0228199 6.40665 0.00191415 6.98775C-0.0189916 7.56885 0.131752 8.14282 0.434256 8.63393C0.73676 9.12505 1.17681 9.51023 1.69635 9.73867C2.21589 9.96711 2.79052 10.0281 3.3444 9.9135C3.89829 9.79893 4.40542 9.51422 4.79889 9.09694L8.45213 11.0668C8.41706 11.2482 8.39938 11.4327 8.39932 11.6177C8.39932 12.1878 8.56356 12.745 8.87126 13.219C9.17897 13.693 9.61632 14.0624 10.128 14.2806C10.6397 14.4988 11.2028 14.5558 11.746 14.4446C12.2892 14.3334 12.7882 14.0589 13.1798 13.6558C13.5714 13.2527 13.8381 12.7391 13.9462 12.18C14.0542 11.6209 13.9988 11.0414 13.7868 10.5147C13.5749 9.98803 13.216 9.53788 12.7554 9.22117C12.2949 8.90446 11.7535 8.73542 11.1997 8.73542ZM11.1997 2.14732C11.437 2.14732 11.6691 2.21977 11.8664 2.3555C12.0638 2.49124 12.2176 2.68416 12.3084 2.90987C12.3993 3.13559 12.4231 3.38396 12.3767 3.62358C12.3304 3.8632 12.2161 4.0833 12.0483 4.25606C11.8804 4.42881 11.6666 4.54646 11.4338 4.59412C11.201 4.64179 10.9597 4.61732 10.7404 4.52383C10.5211 4.43033 10.3336 4.27201 10.2018 4.06887C10.0699 3.86573 9.99952 3.6269 9.99952 3.38259C9.99952 3.05498 10.126 2.74078 10.351 2.50912C10.5761 2.27747 10.8814 2.14732 11.1997 2.14732ZM2.79865 8.32366C2.56128 8.32366 2.32925 8.25121 2.13188 8.11548C1.93452 7.97975 1.78069 7.78682 1.68986 7.56111C1.59902 7.33539 1.57526 7.08702 1.62156 6.8474C1.66787 6.60779 1.78217 6.38768 1.95002 6.21493C2.11786 6.04217 2.33171 5.92452 2.56451 5.87686C2.79732 5.8292 3.03863 5.85366 3.25792 5.94715C3.47722 6.04065 3.66466 6.19898 3.79653 6.40211C3.92841 6.60525 3.99879 6.84408 3.99879 7.08839C3.99738 7.28265 3.95103 7.47376 3.86358 7.64591C3.86358 7.65085 3.85638 7.65332 3.85397 7.65744V7.67062C3.75178 7.86743 3.5997 8.03208 3.41389 8.14706C3.22807 8.26205 3.01546 8.32307 2.79865 8.32366ZM11.1997 12.853C10.8814 12.853 10.5761 12.7228 10.351 12.4912C10.126 12.2595 9.99952 11.9453 9.99952 11.6177C10.0007 11.4259 10.0459 11.2371 10.1315 11.0668C10.1315 11.0602 10.1403 11.0552 10.1443 11.0487V11.0355C10.2445 10.8426 10.3926 10.6806 10.5735 10.5659C10.7544 10.4512 10.9617 10.388 11.1741 10.3828C11.3865 10.3776 11.5964 10.4305 11.7825 10.5361C11.9685 10.6417 12.124 10.7963 12.233 10.984C12.342 11.1717 12.4006 11.3859 12.4029 11.6045C12.4051 11.8232 12.351 12.0386 12.2459 12.2287C12.1408 12.4187 11.9886 12.5767 11.8048 12.6864C11.6209 12.7961 11.4121 12.8535 11.1997 12.853Z" fill="#135F9B"/>
</g>
</svg>
