<svg width="12" height="12" viewBox="0 0 12 12" fill="none" xmlns="http://www.w3.org/2000/svg">
<g id="cart-plus" clip-path="url(#clip0_1086_13953)">
<path id="Vector" d="M6.6 3H5.4V5.4H3V6.6H5.4V9H6.6V6.6H9V5.4H6.6V3ZM6 0C2.688 0 0 2.688 0 6C0 9.312 2.688 12 6 12C9.312 12 12 9.312 12 6C12 2.688 9.312 0 6 0ZM6 10.8C3.354 10.8 1.2 8.646 1.2 6C1.2 3.354 3.354 1.2 6 1.2C8.646 1.2 10.8 3.354 10.8 6C10.8 8.646 8.646 10.8 6 10.8Z" fill="#1F3764"/>
</g>
<defs>
<clipPath id="clip0_1086_13953">
<rect width="12" height="12" fill="white"/>
</clipPath>
</defs>
</svg>
