<svg width="20" height="20" viewBox="0 0 20 20" fill="none" xmlns="http://www.w3.org/2000/svg">
<g clip-path="url(#clip0_1086_13919)">
<path d="M20.25 6.05263C20.25 4.70211 18.624 1.49474 18.126 0.544211C18.0396 0.379306 17.9127 0.241826 17.7586 0.146105C17.6046 0.0503839 17.4289 -7.14049e-05 17.25 8.62506e-08H3.25C3.07283 -7.53975e-05 2.89883 0.0493961 2.74579 0.143353C2.59275 0.237309 2.46617 0.372377 2.379 0.534737C1.88 1.46632 0.25 4.61579 0.25 6.05263C0.250436 6.51232 0.339259 6.96715 0.511118 7.38975C0.682978 7.81234 0.934318 8.19395 1.25 8.51158V18.9474C1.25 19.2265 1.35536 19.4943 1.54289 19.6917C1.73043 19.8891 1.98478 20 2.25 20H4.25C4.51522 20 4.76957 19.8891 4.95711 19.6917C5.14464 19.4943 5.25 19.2265 5.25 18.9474V12.6316H9.25V18.9474C9.25 19.2265 9.35536 19.4943 9.54289 19.6917C9.73043 19.8891 9.98478 20 10.25 20H18.25C18.5152 20 18.7696 19.8891 18.9571 19.6917C19.1446 19.4943 19.25 19.2265 19.25 18.9474V8.46737C19.5604 8.15469 19.8086 7.7802 19.9803 7.36566C20.1519 6.95112 20.2436 6.5048 20.25 6.05263ZM3.841 2.10526H16.65C17.3405 3.34415 17.8782 4.67063 18.25 6.05263C18.2295 6.39452 18.0912 6.71678 17.8611 6.95901C17.6309 7.20125 17.3248 7.34681 17 7.36842C16.6686 7.36786 16.351 7.22906 16.1167 6.98242C15.8824 6.73578 15.7505 6.40143 15.75 6.05263C15.75 5.77346 15.6446 5.50572 15.4571 5.30831C15.2696 5.1109 15.0152 5 14.75 5C14.4848 5 14.2304 5.1109 14.0429 5.30831C13.8554 5.50572 13.75 5.77346 13.75 6.05263C13.75 6.4016 13.6183 6.73628 13.3839 6.98304C13.1495 7.22979 12.8315 7.36842 12.5 7.36842C12.1685 7.36842 11.8505 7.22979 11.6161 6.98304C11.3817 6.73628 11.25 6.4016 11.25 6.05263C11.25 5.77346 11.1446 5.50572 10.9571 5.30831C10.7696 5.1109 10.5152 5 10.25 5C9.98478 5 9.73043 5.1109 9.54289 5.30831C9.35536 5.50572 9.25 5.77346 9.25 6.05263C9.25 6.4016 9.1183 6.73628 8.88388 6.98304C8.64946 7.22979 8.33152 7.36842 8 7.36842C7.66848 7.36842 7.35054 7.22979 7.11612 6.98304C6.8817 6.73628 6.75 6.4016 6.75 6.05263C6.75 5.77346 6.64464 5.50572 6.45711 5.30831C6.26957 5.1109 6.01522 5 5.75 5C5.48478 5 5.23043 5.1109 5.04289 5.30831C4.85536 5.50572 4.75 5.77346 4.75 6.05263C4.74947 6.40143 4.61761 6.73578 4.3833 6.98242C4.14899 7.22906 3.83136 7.36786 3.5 7.36842C3.16977 7.36406 2.85423 7.22403 2.6207 6.97821C2.38718 6.73239 2.25415 6.40024 2.25 6.05263C2.60426 4.66569 3.1397 3.33722 3.841 2.10526ZM15.75 14.7368C15.75 14.8764 15.6973 15.0103 15.6036 15.109C15.5098 15.2077 15.3826 15.2632 15.25 15.2632H12.25C12.1174 15.2632 11.9902 15.2077 11.8964 15.109C11.8027 15.0103 11.75 14.8764 11.75 14.7368V11.5789C11.75 11.4394 11.8027 11.3055 11.8964 11.2068C11.9902 11.1081 12.1174 11.0526 12.25 11.0526H15.25C15.3826 11.0526 15.5098 11.1081 15.6036 11.2068C15.6973 11.3055 15.75 11.4394 15.75 11.5789V14.7368Z" fill="#1F3764"/>
</g>
<defs>
<clipPath id="clip0_1086_13919">
<rect width="20" height="20" fill="white" transform="translate(0.25)"/>
</clipPath>
</defs>
</svg>
