<svg width="20" height="20" viewBox="0 0 20 20" fill="none" xmlns="http://www.w3.org/2000/svg">
<g id="window" clip-path="url(#clip0_1086_14095)">
<path id="Vector" d="M17.9166 0.833336H1.91663C0.813626 0.833336 -0.083374 1.74695 -0.083374 2.87037V17.1296C-0.083374 18.2531 0.813626 19.1667 1.91663 19.1667H17.9166C19.0196 19.1667 19.9166 18.2531 19.9166 17.1296V2.87037C19.9166 1.74695 19.0196 0.833336 17.9166 0.833336ZM10.4166 3.88889C10.9686 3.88889 11.4166 4.34519 11.4166 4.90741C11.4166 5.46963 10.9686 5.92593 10.4166 5.92593C9.86463 5.92593 9.41663 5.46963 9.41663 4.90741C9.41663 4.34519 9.86463 3.88889 10.4166 3.88889ZM7.41663 3.88889C7.96863 3.88889 8.41663 4.34519 8.41663 4.90741C8.41663 5.46963 7.96863 5.92593 7.41663 5.92593C6.86463 5.92593 6.41663 5.46963 6.41663 4.90741C6.41663 4.34519 6.86463 3.88889 7.41663 3.88889ZM4.41663 3.88889C4.96863 3.88889 5.41663 4.34519 5.41663 4.90741C5.41663 5.46963 4.96863 5.92593 4.41663 5.92593C3.86463 5.92593 3.41663 5.46963 3.41663 4.90741C3.41663 4.34519 3.86463 3.88889 4.41663 3.88889ZM1.91663 17.1296V8.98148H17.9176L17.9186 17.1296H1.91663Z" fill="#1F3764"/>
</g>
<defs>
<clipPath id="clip0_1086_14095">
<rect width="20" height="20" fill="white" transform="translate(-0.083374)"/>
</clipPath>
</defs>
</svg>
